<svg xmlns="http://www.w3.org/2000/svg" width="14" height="14" viewBox="0 0 14 14">
  <metadata><?xpacket begin="﻿" id="W5M0MpCehiHzreSzNTczkc9d"?>
<x:xmpmeta xmlns:x="adobe:ns:meta/" x:xmptk="Adobe XMP Core 5.6-c138 79.159824, 2016/09/14-01:09:01        ">
   <rdf:RDF xmlns:rdf="http://www.w3.org/1999/02/22-rdf-syntax-ns#">
      <rdf:Description rdf:about=""/>
   </rdf:RDF>
</x:xmpmeta>
                                                                                                    
                                                                                                    
                                                                                                    
                                                                                                    
                                                                                                    
                                                                                                    
                                                                                                    
                                                                                                    
                                                                                                    
                                                                                                    
                                                                                                    
                                                                                                    
                                                                                                    
                                                                                                    
                                                                                                    
                                                                                                    
                                                                                                    
                                                                                                    
                                                                                                    
                                                                                                    
                           
<?xpacket end="w"?></metadata>
<defs>
    <style>
      .cls-1 {
        fill: #fff;
        fill-rule: evenodd;
      }
    </style>
  </defs>
  <path id="Forma_1" data-name="Forma 1" class="cls-1" d="M1038,940a7,7,0,1,0,7,7A7.008,7.008,0,0,0,1038,940Zm0,13.082a6.082,6.082,0,1,1,6.08-6.082A6.089,6.089,0,0,1,1038,953.082Zm2.53-8.374-3.61,3.61-1.45-1.459a0.459,0.459,0,0,0-.65.649l1.78,1.784a0.463,0.463,0,0,0,.32.134,0.469,0.469,0,0,0,.33-0.134v0l3.93-3.933A0.459,0.459,0,0,0,1040.53,944.708Z" transform="translate(-1031 -940)"/>
</svg>
