<svg xmlns="http://www.w3.org/2000/svg" width="26.44" height="26.437" viewBox="0 0 26.44 26.437">
<defs>
    <style>
      .cls-1 {
        fill: #fff;
        fill-rule: evenodd;
      }
    </style>
  </defs>
  <path id="Right" class="cls-1" d="M1510.54,840.244a13.224,13.224,0,1,1,13.22-13.223A13.231,13.231,0,0,1,1510.54,840.244Zm0-23.968a10.744,10.744,0,1,0,10.74,10.745A10.758,10.758,0,0,0,1510.54,816.276Zm-1.23,16.2v0a1.226,1.226,0,0,1-.84.329,1.243,1.243,0,0,1-1.24-1.239,1.227,1.227,0,0,1,.41-0.911l-0.01,0,3.97-3.631-3.97-3.632,0.01,0a1.223,1.223,0,0,1-.41-0.91,1.239,1.239,0,0,1,2.08-.911v0l4.96,4.546a1.243,1.243,0,0,1,0,1.827Z" transform="translate(-1497.31 -813.813)"/>
</svg>
