<svg xmlns="http://www.w3.org/2000/svg" width="16" height="22.875" viewBox="0 0 16 22.875">
  <metadata><?xpacket begin="﻿" id="W5M0MpCehiHzreSzNTczkc9d"?>
<x:xmpmeta xmlns:x="adobe:ns:meta/" x:xmptk="Adobe XMP Core 5.6-c138 79.159824, 2016/09/14-01:09:01        ">
   <rdf:RDF xmlns:rdf="http://www.w3.org/1999/02/22-rdf-syntax-ns#">
      <rdf:Description rdf:about=""/>
   </rdf:RDF>
</x:xmpmeta>
                                                                                                    
                                                                                                    
                                                                                                    
                                                                                                    
                                                                                                    
                                                                                                    
                                                                                                    
                                                                                                    
                                                                                                    
                                                                                                    
                                                                                                    
                                                                                                    
                                                                                                    
                                                                                                    
                                                                                                    
                                                                                                    
                                                                                                    
                                                                                                    
                                                                                                    
                                                                                                    
                           
<?xpacket end="w"?></metadata>
<defs>
    <style>
      .cls-1 {
        fill: #1a1b1c;
        fill-rule: evenodd;
      }
    </style>
  </defs>
  <path id="Shape_1_копия" data-name="Shape 1 копия" class="cls-1" d="M963.777,407.95v-0.759H963.05v1.178l0.182,0.107a4.087,4.087,0,0,1,.774,6.433,3.923,3.923,0,0,1-2.931,1.13,4.066,4.066,0,0,1-1.842-7.563l0.181-.107V396.5a1.818,1.818,0,1,1,3.636,0v2.582h0.727V396.5a2.545,2.545,0,1,0-5.09,0v11.454a4.808,4.808,0,0,0,2.36,8.828l0.187,0a4.657,4.657,0,0,0,3.276-1.34A4.831,4.831,0,0,0,963.777,407.95Zm-3.636-2.235v3.143a3.273,3.273,0,1,0,2.182,0v-3.143h-2.182Zm3.636,6.27a2.545,2.545,0,1,1-3.181-2.5l0.272-.071v-2.964H961.6v2.964l0.272,0.071A2.572,2.572,0,0,1,963.777,411.985Zm-0.727-6.27h2.182v0.738H963.05v-0.738Zm0-1.475h2.182v0.738H963.05V404.24Zm0-1.475h2.182V403.5H963.05v-0.738Zm0-1.475h2.182v0.737H963.05V401.29Zm0-1.476h2.182v0.738H963.05v-0.738Zm-6.056,1.348,0.087-.733-1.625-.2-0.867-1.523h1.734l0.982,1.328,0.582-.443-0.655-.885h0.728V397.97h-0.728l0.655-.885-0.582-.442-0.982,1.327h-1.734l0.867-1.523,1.625-.2-0.087-.733-1.083.133,0.363-.639-0.629-.369-0.364.639-0.428-1.018-0.669.29,0.642,1.527L953.96,397.6l-0.867-1.522,0.642-1.527-0.669-.29-0.428,1.018-0.364-.639-0.629.369,0.363,0.639-1.083-.133-0.086.733,1.624,0.2,0.867,1.523H951.6l-0.982-1.327-0.582.442,0.655,0.885H949.96v0.738h0.727l-0.655.885,0.582,0.443,0.982-1.328h1.734l-0.867,1.523-1.624.2,0.086,0.733,1.083-.133-0.363.639,0.629,0.369,0.364-.639,0.428,1.018,0.669-.29-0.642-1.526,0.867-1.523,0.866,1.523-0.642,1.526,0.669,0.29,0.428-1.018,0.364,0.639,0.629-.369-0.363-.639Z" transform="translate(-949.969 -393.906)"/>
</svg>
