<svg xmlns="http://www.w3.org/2000/svg" width="18" height="24.875" viewBox="0 0 18 24.875">
  <metadata><?xpacket begin="﻿" id="W5M0MpCehiHzreSzNTczkc9d"?>
<x:xmpmeta xmlns:x="adobe:ns:meta/" x:xmptk="Adobe XMP Core 5.6-c138 79.159824, 2016/09/14-01:09:01        ">
   <rdf:RDF xmlns:rdf="http://www.w3.org/1999/02/22-rdf-syntax-ns#">
      <rdf:Description rdf:about=""/>
   </rdf:RDF>
</x:xmpmeta>
                                                                                                    
                                                                                                    
                                                                                                    
                                                                                                    
                                                                                                    
                                                                                                    
                                                                                                    
                                                                                                    
                                                                                                    
                                                                                                    
                                                                                                    
                                                                                                    
                                                                                                    
                                                                                                    
                                                                                                    
                                                                                                    
                                                                                                    
                                                                                                    
                                                                                                    
                                                                                                    
                           
<?xpacket end="w"?></metadata>
<defs>
    <style>
      .cls-1 {
        fill: #1a1b1c;
        fill-rule: evenodd;
      }
    </style>
  </defs>
  <path id="Shape_1_копия_6" data-name="Shape 1 копия 6" class="cls-1" d="M1334.5,408.176v-0.825h-0.82v1.281l0.2,0.116a4.415,4.415,0,0,1,2.26,3.815,4.33,4.33,0,0,1-1.38,3.177,4.522,4.522,0,0,1-7.62-3.074,4.382,4.382,0,0,1,2.25-3.918l0.2-.116V395.725a2.045,2.045,0,0,1,4.09,0v2.806h0.82v-2.806a2.866,2.866,0,0,0-5.73,0v12.451a5.191,5.191,0,0,0-2.45,4.508,5.327,5.327,0,0,0,5.11,5.086c0.07,0,.14,0,0.21,0a5.327,5.327,0,0,0,3.68-1.457,5.125,5.125,0,0,0,1.63-3.755A5.2,5.2,0,0,0,1334.5,408.176Zm-2.86-13.653a1.216,1.216,0,0,0-1.23,1.2v13.438a3.588,3.588,0,0,0,.49,6.937,3.839,3.839,0,0,0,.73.069,3.705,3.705,0,0,0,2.34-.821,3.553,3.553,0,0,0,1.35-2.785,3.616,3.616,0,0,0-2.46-3.4V395.725A1.214,1.214,0,0,0,1331.64,394.523Zm2.86,18.04a2.764,2.764,0,0,1-1.05,2.167,2.927,2.927,0,0,1-2.4.584,2.795,2.795,0,0,1-.13-5.465l0.31-.078V395.725a0.405,0.405,0,0,1,.81,0v14.046l0.31,0.078A2.809,2.809,0,0,1,1334.5,412.563Zm-0.82-6.816h2.46v0.8h-2.46v-0.8Zm0-1.6h2.46v0.8h-2.46v-0.8Zm0-1.6h2.46v0.8h-2.46v-0.8Zm0-1.6h2.46v0.8h-2.46v-0.8Zm0-1.6h2.46v0.8h-2.46v-0.8Zm-10.23-4.41a2.406,2.406,0,1,0,2.46,2.406A2.431,2.431,0,0,0,1323.45,394.923Zm0,4.009a1.6,1.6,0,1,1,1.64-1.6A1.618,1.618,0,0,1,1323.45,398.932Zm-0.41-6.013h0.82v1.2h-0.82v-1.2Zm-2.48,1.008,0.87,0.85-0.58.567-0.87-.85Zm-1.61,3h1.23v0.8h-1.23v-0.8Zm1.61,3.8-0.58-.567,0.87-.851,0.58,0.567Zm2.48-.195h0.82v1.2h-0.82v-1.2Zm3.02-1.223,0.86,0.851-0.57.567-0.87-.851Zm0.67-2.385h1.22v0.8h-1.22v-0.8Zm-0.38-3,0.57,0.567-0.86.851-0.58-.567Z" transform="translate(-1318.97 -392.906)"/>
</svg>
