<svg xmlns="http://www.w3.org/2000/svg" width="23" height="22.843" viewBox="0 0 23 22.843">
  <metadata><?xpacket begin="﻿" id="W5M0MpCehiHzreSzNTczkc9d"?>
<x:xmpmeta xmlns:x="adobe:ns:meta/" x:xmptk="Adobe XMP Core 5.6-c138 79.159824, 2016/09/14-01:09:01        ">
   <rdf:RDF xmlns:rdf="http://www.w3.org/1999/02/22-rdf-syntax-ns#">
      <rdf:Description rdf:about=""/>
   </rdf:RDF>
</x:xmpmeta>
                                                                                                    
                                                                                                    
                                                                                                    
                                                                                                    
                                                                                                    
                                                                                                    
                                                                                                    
                                                                                                    
                                                                                                    
                                                                                                    
                                                                                                    
                                                                                                    
                                                                                                    
                                                                                                    
                                                                                                    
                                                                                                    
                                                                                                    
                                                                                                    
                                                                                                    
                                                                                                    
                           
<?xpacket end="w"?></metadata>
<defs>
    <style>
      .cls-1 {
        fill: #1a1b1c;
        fill-rule: evenodd;
      }
    </style>
  </defs>
  <path id="Forma_1_копия_4" data-name="Forma 1 копия 4" class="cls-1" d="M1061.43,412.754l-2.21-2.2a0.305,0.305,0,0,1,0-.433,1.073,1.073,0,0,0,0-1.534L1044.05,393.5a2.017,2.017,0,0,0-2.84,0l-1.66,1.649a1.988,1.988,0,0,0,0,2.827l3.26,3.247c0.02,0.018.02,0.039,0.04,0.056a0.487,0.487,0,0,0,.06.037l2.54,2.53a0.168,0.168,0,0,0,.04.055,0.142,0.142,0,0,0,.05.037l2.55,2.53c0.01,0.019.02,0.039,0.03,0.056a0.649,0.649,0,0,0,.06.037l2.54,2.53c0.02,0.019.02,0.039,0.04,0.055a0.649,0.649,0,0,0,.06.037l2.21,2.2a0.165,0.165,0,0,0,.04.054,0.155,0.155,0,0,0,.05.037l1.6,1.588a1.116,1.116,0,0,0,1.54,0,0.318,0.318,0,0,1,.44,0l2.21,2.2a1.789,1.789,0,0,0,2.52,0A1.772,1.772,0,0,0,1061.43,412.754Zm-4.95-.56a1.084,1.084,0,0,0-.77.317,0.322,0.322,0,0,1-.44,0l-1.36-1.359,0.7-.7a0.394,0.394,0,0,0,0-.551,0.387,0.387,0,0,0-.55,0l-0.71.7-1.75-1.744,0.7-.7a0.376,0.376,0,0,0,0-.551,0.387,0.387,0,0,0-.55,0l-0.7.7-2.09-2.071,0.71-.7a0.394,0.394,0,0,0,0-.551,0.4,0.4,0,0,0-.56,0l-0.7.7-2.08-2.072,0.7-.7a0.394,0.394,0,0,0,0-.551,0.4,0.4,0,0,0-.56,0l-0.7.7-2.08-2.072,0.7-.7a0.394,0.394,0,0,0,0-.551,0.389,0.389,0,0,0-.55,0l-0.7.7-3.04-3.017a1.213,1.213,0,0,1,0-1.725l1.66-1.649a1.228,1.228,0,0,1,1.73,0l3.04,3.018-0.71.707a0.376,0.376,0,0,0,0,.551,0.367,0.367,0,0,0,.27.115,0.406,0.406,0,0,0,.28-0.115l0.71-.707,2.09,2.071-0.72.709a0.394,0.394,0,0,0,0,.551,0.4,0.4,0,0,0,.56,0l0.71-.708,2.08,2.071-0.71.708a0.394,0.394,0,0,0,0,.551,0.406,0.406,0,0,0,.28.115,0.367,0.367,0,0,0,.27-0.115l0.72-.708,2.08,2.072-0.71.708a0.376,0.376,0,0,0,0,.551,0.366,0.366,0,0,0,.27.114,0.405,0.405,0,0,0,.28-0.114l0.71-.708,1.76,1.744-0.71.708a0.376,0.376,0,0,0,0,.551,0.366,0.366,0,0,0,.27.114,0.405,0.405,0,0,0,.28-0.114l0.71-.708,1.37,1.359a0.3,0.3,0,0,1,0,.432,1.08,1.08,0,0,0,0,1.535l0.56,0.565-1.4,1.392a0.016,0.016,0,0,1-.01.017l-0.57-.568A1.084,1.084,0,0,0,1056.48,412.194Zm4.4,2.517a1.013,1.013,0,0,1-1.42,0l-1.09-1.087a0.2,0.2,0,0,0,.02-0.011l1.4-1.392,1.09,1.083A1,1,0,0,1,1060.88,414.711Zm-18.96-19.4a0.4,0.4,0,0,0-.56,0,0.394,0.394,0,0,0,0,.551l13.85,13.77a0.366,0.366,0,0,0,.27.114,0.405,0.405,0,0,0,.28-0.114,0.4,0.4,0,0,0,0-.552Z" transform="translate(-1038.97 -392.938)"/>
</svg>
